<?xml version="1.0" encoding="UTF-8"?>
<svg xmlns="http://www.w3.org/2000/svg" xmlns:xlink="http://www.w3.org/1999/xlink" viewBox="0 0 30 30" width="30px" height="30px">
<g id="surface821276">
<path style=" stroke:none;fill-rule:nonzero;fill:rgb(4.313726%,43.137255%,67.843139%);fill-opacity:1;" d="M 11.183594 3.742188 L 11.183594 24.859375 L 15.761719 26.257812 L 15.761719 8.574219 C 15.761719 8.066406 15.761719 7.8125 16.015625 7.558594 C 16.144531 7.304688 16.394531 7.304688 16.652344 7.429688 C 17.285156 7.6875 17.671875 8.195312 17.671875 9.210938 L 17.671875 16.207031 C 19.195312 16.96875 20.464844 16.96875 21.484375 16.207031 C 22.503906 15.445312 23.011719 14.300781 23.011719 12.390625 C 23.011719 10.359375 22.628906 9.085938 21.738281 8.066406 C 20.976562 7.050781 19.578125 6.160156 17.542969 5.523438 C 15 4.761719 12.835938 4.125 11.183594 3.742188 Z M 9.910156 16.972656 L 4.058594 19.007812 L 3.171875 19.390625 C 1.769531 20.023438 1.007812 20.660156 1.007812 21.296875 C 1.136719 22.058594 1.390625 23.078125 3.296875 23.714844 C 5.078125 24.351562 6.476562 24.605469 10.039062 23.589844 L 10.039062 21.296875 C 6.601562 22.441406 6.09375 22.316406 5.585938 22.0625 C 5.078125 21.804688 5.074219 21.550781 5.203125 21.425781 C 5.585938 21.167969 6.984375 20.660156 6.984375 20.660156 L 9.910156 19.644531 Z M 22.855469 17.964844 C 22.441406 17.949219 22.027344 17.957031 21.613281 17.988281 C 20.214844 17.988281 18.941406 18.242188 17.414062 18.625 L 17.414062 21.296875 L 20.214844 20.277344 L 21.738281 19.769531 C 21.738281 19.769531 22.375 19.644531 22.757812 19.515625 C 23.394531 19.386719 24.15625 19.640625 24.15625 19.640625 C 24.539062 19.640625 24.792969 19.769531 24.792969 20.023438 C 24.921875 20.277344 24.664062 20.40625 24.03125 20.660156 L 22.628906 21.171875 L 17.542969 23.078125 L 17.542969 25.75 L 19.832031 24.984375 L 26.191406 22.695312 L 26.957031 22.3125 C 28.480469 21.804688 29.117188 21.167969 28.992188 20.40625 C 28.992188 19.640625 28.101562 19.132812 26.574219 18.625 C 25.332031 18.242188 24.09375 18.003906 22.855469 17.964844 Z M 22.855469 17.964844 "/>
</g>
</svg>
