<?xml version="1.0" encoding="UTF-8"?>
<svg xmlns="http://www.w3.org/2000/svg" xmlns:xlink="http://www.w3.org/1999/xlink" viewBox="0 0 30 30" width="30px" height="30px">
<g id="surface718812">
<path style=" stroke:none;fill-rule:nonzero;fill:rgb(4.705882%,56.078434%,23.921569%);fill-opacity:1;" d="M 15 3 C 13.050781 3 10.636719 3.617188 8.835938 4.703125 C 8.703125 4.777344 8.347656 5.023438 8.164062 5.246094 C 9.882812 3.351562 14.894531 7.347656 15 7.433594 L 15 7.4375 C 15.105469 7.351562 20.117188 3.351562 21.835938 5.246094 C 21.652344 5.023438 21.296875 4.78125 21.164062 4.703125 C 19.363281 3.621094 17.253906 3 15.003906 3 Z M 7.441406 6.105469 C 7.035156 6.167969 6.582031 6.425781 6.195312 6.847656 C 4.210938 8.988281 3 11.851562 3 15 C 3 18.105469 4.183594 20.933594 6.121094 23.066406 C 5.484375 19.988281 6.0625 17.820312 7.800781 15 C 9.539062 12.175781 12.597656 9 12.597656 9 C 10.074219 6.613281 8.28125 6.1875 7.824219 6.105469 C 7.707031 6.082031 7.578125 6.082031 7.441406 6.105469 Z M 6.121094 23.066406 L 6.121094 23.070312 C 8.316406 25.480469 11.496094 27 15.003906 27 C 18.519531 27 21.683594 25.484375 23.882812 23.074219 C 25.820312 20.941406 27 18.109375 27 15 C 27 11.851562 25.789062 8.988281 23.804688 6.847656 C 23.289062 6.289062 22.652344 6.015625 22.175781 6.105469 C 21.71875 6.191406 19.925781 6.617188 17.402344 9 C 17.402344 9 20.460938 12.175781 22.199219 15 C 23.933594 17.820312 24.515625 19.992188 23.878906 23.066406 C 23.871094 23.035156 23.628906 21.453125 22.015625 19.21875 C 20.75 17.476562 17 13.300781 15 11.402344 C 13 13.300781 9.25 17.472656 7.988281 19.214844 C 6.371094 21.449219 6.128906 23.03125 6.121094 23.066406 Z M 6.121094 23.066406 "/>
</g>
</svg>
